# xmcd
#
# Track frame offsets: 
#        150
#        33775
#        47825
#        78995
#        99837
#        112450
#        128275
#        149870
#        164340
#        182597
#        202700
#        217000
#        240577
#        266565
#        278360
#        293702
#
# Disc length: 4138 seconds
#
# Revision: 4
# Processed by: cddbd v1.5.1PL2 Copyright (c) Steve Scherf et al.
# Submitted via: ExactAudioCopy v0.95b4
#
DISCID=de102810
DTITLE=Johnny Hodges - Everybody Knows Johnny Hodges
DYEAR=1964
DGENRE=Jazz
TTITLE0=Everybody Knows
TTITLE1=A Flower Is A Lovesome Thing
TTITLE2=Papa Knows
TTITLE3=310 Blues
TTITLE4=The Jeep Is Jumpin'
TTITLE5=Main Stem
TTITLE6=Medley: I Let A Song Go Out Of My Heart/Don't Get Around Much 
TTITLE6=Anymore
TTITLE7=Open Mike
TTITLE8=Stompy Jones
TTITLE9=Mood Indigo
TTITLE10=Good Queen Bess
TTITLE11=Little Brother
TTITLE12=Jeep's Blues
TTITLE13=Do Nothin' Till You Hear From Me
TTITLE14=Ruint
TTITLE15=Sassy Cue
EXTD=
EXTT0=
EXTT1=
EXTT2=
EXTT3=
EXTT4=
EXTT5=
EXTT6=I Let a Song Go Out of My Heart\nDon't Get Around Much Anymore
EXTT7=
EXTT8=
EXTT9=
EXTT10=
EXTT11=
EXTT12=
EXTT13=
EXTT14=
EXTT15=
PLAYORDER=
